<svg width="35" height="28" viewBox="0 0 35 28" fill="none" xmlns="http://www.w3.org/2000/svg">
<path d="M10.955 7.39005C10.955 7.39005 7.11123 7.78347 5.09873 6.05934C3.08623 4.33391 3.54498 1.03863 3.54498 1.03863C3.54498 1.03863 7.38873 0.645206 9.40248 2.36934C11.415 4.09477 10.955 7.39005 10.955 7.39005V7.39005Z" stroke="white" stroke-width="2" stroke-linecap="round" stroke-linejoin="round"/>
<path d="M11.045 7.39005C11.045 7.39005 14.8887 7.78347 16.9012 6.05934C18.9137 4.33391 18.455 1.03863 18.455 1.03863C18.455 1.03863 14.6112 0.645206 12.5987 2.36934C10.5862 4.09477 11.045 7.39005 11.045 7.39005V7.39005Z" stroke="white" stroke-width="2" stroke-linecap="round" stroke-linejoin="round"/>
<path d="M1 12.5715C1 12.2305 1.1317 11.9035 1.36612 11.6623C1.60054 11.4212 1.91848 11.2858 2.25 11.2858H19.75C20.0815 11.2858 20.3995 11.4212 20.6339 11.6623C20.8683 11.9035 21 12.2305 21 12.5715V15.1429C21 15.4839 20.8683 15.8109 20.6339 16.052C20.3995 16.2932 20.0815 16.4286 19.75 16.4286H2.25C1.91848 16.4286 1.60054 16.2932 1.36612 16.052C1.1317 15.8109 1 15.4839 1 15.1429V12.5715Z" stroke="white" stroke-width="2" stroke-linecap="round" stroke-linejoin="round"/>
<path d="M2.25 16.4286H19.75L17.25 26.7143H4.75L2.25 16.4286Z" stroke="white" stroke-width="2" stroke-linecap="round" stroke-linejoin="round"/>
<path d="M28.6484 3.78125H29.3516C29.4141 3.78125 29.4453 3.8125 29.4453 3.875V12.125C29.4453 12.1875 29.4141 12.2188 29.3516 12.2188H28.6484C28.5859 12.2188 28.5547 12.1875 28.5547 12.125V3.875C28.5547 3.8125 28.5859 3.78125 28.6484 3.78125Z" fill="white"/>
<path d="M25.0625 7.55469H32.9375C33 7.55469 33.0312 7.58594 33.0312 7.64844V8.35156C33.0312 8.41406 33 8.44531 32.9375 8.44531H25.0625C25 8.44531 24.9688 8.41406 24.9688 8.35156V7.64844C24.9688 7.58594 25 7.55469 25.0625 7.55469Z" fill="white"/>
</svg>
