<svg width="39" height="31" viewBox="0 0 39 31" fill="none" xmlns="http://www.w3.org/2000/svg">
<path d="M23.4996 3.42857L26.952 6.85714H34.5927V27.4286H4.40733V6.85714H12.048L15.5004 3.42857H23.4996ZM25.1598 0H13.8403L10.3878 3.42857H4.40733C2.33208 3.42857 0.634155 4.97143 0.634155 6.85714V27.4286C0.634155 29.3143 2.33208 30.8571 4.40733 30.8571H34.5927C36.6679 30.8571 38.3659 29.3143 38.3659 27.4286V6.85714C38.3659 4.97143 36.6679 3.42857 34.5927 3.42857H28.6122L25.1598 0ZM19.5 12C22.6129 12 25.1598 14.3143 25.1598 17.1429C25.1598 19.9714 22.6129 22.2857 19.5 22.2857C16.3871 22.2857 13.8403 19.9714 13.8403 17.1429C13.8403 14.3143 16.3871 12 19.5 12ZM19.5 8.57143C14.293 8.57143 10.0671 12.4114 10.0671 17.1429C10.0671 21.8743 14.293 25.7143 19.5 25.7143C24.707 25.7143 28.9329 21.8743 28.9329 17.1429C28.9329 12.4114 24.707 8.57143 19.5 8.57143Z" fill="black"/>
</svg>
