<svg width="34" height="34" viewBox="0 0 34 34" fill="none" xmlns="http://www.w3.org/2000/svg">
<path d="M34 22.8158V19.0877H28.2011C28.1067 18.3607 27.9744 17.6524 27.7856 16.9627L32.6589 14.1853L30.77 10.9605L26.2933 13.4956C25.7644 12.6009 25.1222 11.7993 24.4233 11.091C24.6122 10.0471 24.8011 7.94079 23.3278 5.70395L26.4444 2.62829L23.7811 0L20.5322 3.20614C17.3589 1.54715 14.6767 2.59101 13.4867 3.20614L10.2189 0L7.55556 2.62829L10.6722 5.70395C9.19889 7.94079 9.38778 10.0658 9.57667 11.091C8.87778 11.818 8.23556 12.6195 7.70667 13.4956L3.23 10.9419L1.34111 14.1667L6.21444 16.9441C6.02556 17.6338 5.89333 18.3421 5.79889 19.0691H0V22.7971H5.79889C5.89333 23.5241 6.02556 24.2325 6.21444 24.9221L1.34111 27.6996L3.23 30.9243L7.70667 28.4079C9.74667 31.7818 13.1467 34 17 34C20.8533 34 24.2533 31.7818 26.2933 28.4079L30.77 30.9616L32.6589 27.7368L27.7856 24.9594C27.9744 24.2697 28.1067 23.5614 28.2011 22.8344H34V22.8158ZM17 6.03947C18.6622 6.03947 20.06 7.10197 20.5511 8.57456C19.4367 8.14583 18.2467 7.90351 17 7.90351C15.7533 7.90351 14.5633 8.14583 13.4489 8.57456C13.94 7.10197 15.3378 6.03947 17 6.03947ZM17 30.2719C12.8256 30.2719 9.44444 26.0965 9.44444 20.9518C9.44444 15.807 12.8256 11.6316 17 11.6316C21.1744 11.6316 24.5556 15.807 24.5556 20.9518C24.5556 26.0965 21.1744 30.2719 17 30.2719Z" fill="black"/>
</svg>
