<svg width="23" height="23" viewBox="0 0 23 23" fill="none" xmlns="http://www.w3.org/2000/svg">
<path fill-rule="evenodd" clip-rule="evenodd" d="M22.54 11.7615C22.54 10.946 22.4669 10.1619 22.331 9.40918H11.5V13.8576H17.6891C17.4225 15.2951 16.6123 16.5131 15.3944 17.3285V20.214H19.111C21.2855 18.2119 22.54 15.2638 22.54 11.7615Z" fill="#4285F4"/>
<path fill-rule="evenodd" clip-rule="evenodd" d="M11.5 22.9998C14.605 22.9998 17.2082 21.97 19.1109 20.2137L15.3943 17.3282C14.3646 18.0182 13.0473 18.4259 11.5 18.4259C8.50481 18.4259 5.96961 16.403 5.06521 13.6848H1.22321V16.6644C3.11551 20.4228 7.00461 22.9998 11.5 22.9998Z" fill="#34A853"/>
<path fill-rule="evenodd" clip-rule="evenodd" d="M5.0653 13.685C4.8353 12.995 4.7046 12.2579 4.7046 11.5C4.7046 10.742 4.8353 10.005 5.0653 9.31505V6.33545H1.2232C0.4444 7.88795 0 9.64435 0 11.5C0 13.3556 0.4444 15.112 1.2232 16.6645L5.0653 13.685Z" fill="#FBBC05"/>
<path fill-rule="evenodd" clip-rule="evenodd" d="M11.5 4.5739C13.1884 4.5739 14.7043 5.1541 15.8961 6.2936L19.1946 2.9952C17.203 1.1395 14.5998 0 11.5 0C7.00461 0 3.11551 2.577 1.22321 6.3355L5.06521 9.315C5.96961 6.5968 8.50481 4.5739 11.5 4.5739Z" fill="#EA4335"/>
</svg>
