<svg width="22" height="28" viewBox="0 0 22 28" fill="none" xmlns="http://www.w3.org/2000/svg">
<path d="M10.955 7.39005C10.955 7.39005 7.11123 7.78347 5.09873 6.05934C3.08623 4.33391 3.54498 1.03863 3.54498 1.03863C3.54498 1.03863 7.38873 0.645206 9.40248 2.36934C11.415 4.09477 10.955 7.39005 10.955 7.39005V7.39005Z" stroke="white" stroke-width="2" stroke-linecap="round" stroke-linejoin="round"/>
<path d="M11.045 7.39005C11.045 7.39005 14.8887 7.78347 16.9012 6.05934C18.9137 4.33391 18.455 1.03863 18.455 1.03863C18.455 1.03863 14.6112 0.645206 12.5987 2.36934C10.5862 4.09477 11.045 7.39005 11.045 7.39005V7.39005Z" stroke="white" stroke-width="2" stroke-linecap="round" stroke-linejoin="round"/>
<path d="M1 12.5714C1 12.2304 1.1317 11.9034 1.36612 11.6623C1.60054 11.4212 1.91848 11.2857 2.25 11.2857H19.75C20.0815 11.2857 20.3995 11.4212 20.6339 11.6623C20.8683 11.9034 21 12.2304 21 12.5714V15.1428C21 15.4838 20.8683 15.8109 20.6339 16.052C20.3995 16.2931 20.0815 16.4286 19.75 16.4286H2.25C1.91848 16.4286 1.60054 16.2931 1.36612 16.052C1.1317 15.8109 1 15.4838 1 15.1428V12.5714Z" stroke="white" stroke-width="2" stroke-linecap="round" stroke-linejoin="round"/>
<path d="M2.25 16.4285H19.75L17.25 26.7142H4.75L2.25 16.4285Z" stroke="white" stroke-width="2" stroke-linecap="round" stroke-linejoin="round"/>
</svg>
