<svg width="37" height="35" viewBox="0 0 37 35" fill="none" xmlns="http://www.w3.org/2000/svg">
<path d="M29.3375 18.9968C23.3588 18.9968 18.5 23.6424 18.5 29.3587C24.4787 29.3587 29.3375 24.7131 29.3375 18.9968ZM7.6625 18.9968C7.6625 24.7131 12.5213 29.3587 18.5 29.3587C18.5 23.6424 13.6412 18.9968 7.6625 18.9968ZM11.275 15.5947C11.275 17.0799 12.5394 18.2888 14.0928 18.2888C14.6888 18.2888 15.2307 18.1161 15.7003 17.8052L15.6822 18.0124C15.6822 19.4977 16.9466 20.7065 18.5 20.7065C20.0534 20.7065 21.3178 19.4977 21.3178 18.0124L21.2997 17.8052C21.7512 18.0988 22.3112 18.2888 22.9072 18.2888C24.4606 18.2888 25.725 17.0799 25.725 15.5947C25.725 14.5239 25.0567 13.5914 24.1174 13.1596C25.0567 12.7451 25.725 11.8126 25.725 10.7418C25.725 9.25664 24.4606 8.04775 22.9072 8.04775C22.3112 8.04775 21.7693 8.22045 21.2997 8.5313L21.3178 8.32406C21.3178 6.83886 20.0534 5.62997 18.5 5.62997C16.9466 5.62997 15.6822 6.83886 15.6822 8.32406L15.7003 8.5313C15.2487 8.22045 14.6888 8.04775 14.0928 8.04775C12.5394 8.04775 11.275 9.25664 11.275 10.7418C11.275 11.8126 11.9433 12.7451 12.8826 13.1769C11.9433 13.5914 11.275 14.5239 11.275 15.5947ZM18.5 10.4655C20.0534 10.4655 21.3178 11.6744 21.3178 13.1596C21.3178 14.6448 20.0534 15.8537 18.5 15.8537C16.9466 15.8537 15.6822 14.6448 15.6822 13.1596C15.6822 11.6744 16.9466 10.4655 18.5 10.4655ZM32.95 3.45397V31.0857H4.05V3.45397H32.95ZM32.95 0H4.05C2.06312 0 0.4375 1.55429 0.4375 3.45397V31.0857C0.4375 32.9854 2.06312 34.5397 4.05 34.5397H32.95C34.9369 34.5397 36.5625 32.9854 36.5625 31.0857V3.45397C36.5625 1.55429 34.9369 0 32.95 0Z" fill="black"/>
</svg>
