<svg width="29" height="29" viewBox="0 0 29 29" fill="none" xmlns="http://www.w3.org/2000/svg">
<path d="M11.3281 8.99738H13.421V18.5781C13.421 18.7027 13.5229 18.8047 13.6476 18.8047H15.3468C15.4714 18.8047 15.5733 18.7027 15.5733 18.5781V8.99738H17.6719C17.8616 8.99738 17.9664 8.77931 17.8503 8.63204L14.6784 4.61623C14.6572 4.58915 14.6301 4.56725 14.5992 4.55219C14.5683 4.53712 14.5344 4.5293 14.5 4.5293C14.4656 4.5293 14.4317 4.53712 14.4008 4.55219C14.3699 4.56725 14.3428 4.58915 14.3216 4.61623L11.1497 8.62921C11.0336 8.77931 11.1384 8.99738 11.3281 8.99738ZM24.8652 17.7285H23.166C23.0414 17.7285 22.9395 17.8305 22.9395 17.9551V22.3164H6.06055V17.9551C6.06055 17.8305 5.95859 17.7285 5.83398 17.7285H4.13477C4.01016 17.7285 3.9082 17.8305 3.9082 17.9551V23.5625C3.9082 24.0638 4.31318 24.4688 4.81445 24.4688H24.1855C24.6868 24.4688 25.0918 24.0638 25.0918 23.5625V17.9551C25.0918 17.8305 24.9898 17.7285 24.8652 17.7285Z" fill="white"/>
</svg>
